# xmcd CD database file
#
# Track frame offsets:
#	150
#	24620
#	56400
#	80025
#	113925
#	137755
#	164672
#	201017
#	232002
#	254335
#
# Disc length: 3635 seconds
#
# Revision: 2
# Processed by: cddbd v1.5.1PL2 Copyright (c) Steve Scherf et al.
# Submitted via: CDex 1.51
#
DISCID=8d0e310a
DTITLE=Pierre Favre - Yang Jing - TWO IN ONE
DYEAR=2006
DGENRE=Jazz
TTITLE0=TWO IN ONE
TTITLE1=BRIGHT NIGHT
TTITLE2=THE THEATER EVENING
TTITLE3=MAY IN SHANGHAI
TTITLE4=SOUND FORREST
TTITLE5=L'OEIL EMERVEILLE
TTITLE6=SATURDAY AFTERNOON
TTITLE7=RAINIG DAY
TTITLE8=TRIANDAFILA
TTITLE9=WAS A DREAM
EXTD=YEAR: 2006
EXTT0=
EXTT1=
EXTT2=
EXTT3=
EXTT4=
EXTT5=
EXTT6=
EXTT7=
EXTT8=
EXTT9=
PLAYORDER=
